<svg xmlns="http://www.w3.org/2000/svg" width="282.136" height="211" viewBox="0 0 282.136 211"><defs><style>.a{fill:#cff1fa;}.b{fill:#08a1ba;}.c{fill:#71caee;}.d{fill:#fff;}.e{fill:#13516c;}.f{fill:#e6e9ed;}.g{fill:#02aff3;}.h{fill:#f5f7fa;}.i{fill:#5a5a5a;}.j{fill:#444;}.k{fill:#deecf1;}.l{fill:#002c47;}</style></defs><g transform="translate(-382.952 -142.442)"><path class="a" d="M409.729,325.513s-31.887-10.241-26.068-36.076c6.051-26.836,34.447-21.878,24.671-56.558s-49.343-109.857,32.585-85.651c97.917,28.931,187.13-.7,187.13-.7s60.049-21.878,27.232,35.611-18.62,72.85-18.62,72.85,42.36,44.688-1.4,70.523-187.363,16.525-223.439,0"/><ellipse class="b" cx="139.067" cy="15.617" rx="139.067" ry="15.617" transform="translate(383.661 322.208)"/><ellipse class="c" cx="120.145" cy="14.407" rx="120.145" ry="14.407" transform="translate(402.142 314.108)"/><path class="d" d="M474.813,218.86s-11.637-33.516,23.042-27.93c0,0,7.913,2.56,3.724,5.586S479,196.981,482.028,215.6c0,0,.233,7.913-5.12,3.258" transform="translate(-69.04 -36.72)"/><path class="d" d="M1418.536,192.41s37.473-10.474,24.9,16.525c0,0-5.12,4.655-7.215,0s7.914-15.129-14.43-11.172C1421.795,197.763,1413.416,199.625,1418.536,192.41Z" transform="translate(-793.282 -36.804)"/><g transform="translate(435.099 213.321)"><path class="e" d="M1226.1,706.3a28.3,28.3,0,1,0,28.3,28.3A28.334,28.334,0,0,0,1226.1,706.3Z" transform="translate(-1060.292 -645.941)"/><path class="b" d="M1272.751,767.1a14.151,14.151,0,1,0,14.151,14.151A14.175,14.175,0,0,0,1272.751,767.1Z" transform="translate(-1106.941 -692.59)"/><path class="f" d="M1252.78,721.289a4.043,4.043,0,0,1-3.538-2.095l-16.176-29.536a4.047,4.047,0,0,1,7.1-3.887l16.176,29.536a4.054,4.054,0,0,1-1.606,5.493A4.266,4.266,0,0,1,1252.78,721.289Z" transform="translate(-1086.97 -628.578)"/><path class="e" d="M635.3,706.3a28.3,28.3,0,1,0,28.3,28.3A28.334,28.334,0,0,0,635.3,706.3Z" transform="translate(-607 -645.941)"/><path class="b" d="M681.951,767.1A14.151,14.151,0,1,0,696.1,781.251,14.175,14.175,0,0,0,681.951,767.1Z" transform="translate(-653.649 -692.59)"/><path class="g" d="M836.677,481.866c-2-9.45-8.146-23.089-26.068-34.284a4.074,4.074,0,0,0-4.958.512l-8.1,7.774a4.041,4.041,0,0,0-.815,4.725l4.1,8.193c-7.285-1.7-17.968-3.724-27.6-3.724-6.051,0-11.056.815-14.9,2.421-7.332,3.1-14.058,14.128-16.9,19.295l-62.214-7.448a4.039,4.039,0,0,0-4.1,2.188,5.612,5.612,0,0,0-.233,4.4c1.071,3.189,5.144,8.146,27.3,20.6,6.028,3.4,11.987,6.54,16.432,8.821l-33.283,16.618a4.043,4.043,0,0,0,1.3,7.634l30.979,3.864,7.1,7.1a4.034,4.034,0,0,0,2.863,1.187h60.654a4.015,4.015,0,0,0,4.027-4.12c0-.209-.372-20.784,12.266-33.772,6.8-7.006,16.292-10.567,28.186-10.613a4.015,4.015,0,0,0,3.864-2.909C836.7,500.02,838.888,492.27,836.677,481.866Z" transform="translate(-658.834 -446.97)"/><path class="b" d="M741.537,593.447,679.323,586a4.039,4.039,0,0,0-4.1,2.188,5.612,5.612,0,0,0-.233,4.4c1.071,3.189,5.144,8.146,27.3,20.6,6.028,3.4,11.987,6.54,16.432,8.821C718.7,622.029,719.938,599.8,741.537,593.447Z" transform="translate(-658.911 -553.617)"/><path class="e" d="M1021.4,528.524c-7.285-1.7-17.968-3.724-27.6-3.724-6.051,0-11.056.815-14.9,2.421-7.332,3.1-14.058,14.128-16.9,19.295,0,0,10.055,2.63,30.327-2.886C1019.629,536.158,1021.4,528.524,1021.4,528.524Z" transform="translate(-879.374 -506.685)"/><g transform="translate(51.554 64.409)"><path class="e" d="M859.875,777.325,828.5,745.02l8.239-4.12,34.842,36.425Z" transform="translate(-828.5 -736.897)"/><path class="e" d="M966.626,723.7a12.126,12.126,0,1,0,12.126,12.126A12.148,12.148,0,0,0,966.626,723.7Z" transform="translate(-925.174 -723.7)"/></g><path class="h" d="M1048.213,811.687a4.049,4.049,0,1,1-5.726,0A4.046,4.046,0,0,1,1048.213,811.687Z" transform="translate(-940.217 -725.889)"/><path class="b" d="M1164.223,657.6,1138.9,670.1l15.105,15.292a37.813,37.813,0,0,1,6.843-9.869,33.3,33.3,0,0,1,14.919-8.821Z" transform="translate(-1015.101 -608.576)"/></g><g transform="translate(497.809 271.513)"><path class="i" d="M958.918,913.5a7.858,7.858,0,0,1-5,8.751c-6,2.234-15.524,5.633-24.485,8.239a39.7,39.7,0,0,1-24.229-.675L933.479,916.2Z" transform="translate(-898.504 -863.108)"/><path class="j" d="M1002.838,916.2l-4.143,2-3.1,13.081c1.071-.209,2.141-.489,3.189-.791,8.961-2.63,18.48-6,24.485-8.239a7.858,7.858,0,0,0,5-8.751Z" transform="translate(-967.864 -863.108)"/><path class="g" d="M941.431,745.266s-27.232,13.5-58.3,18.434l-1.955-2.979-.7-1.071a3.961,3.961,0,0,1-.884-.768c-1.49-1.559-4.189-5.842-2.746-15.338,0,0,33.818,8.751,55.208-9.612a6.481,6.481,0,0,0,.559-9.147,6.583,6.583,0,0,0-3.352-2.025,6.056,6.056,0,0,0-1.3-.163,186.055,186.055,0,0,1-43.664-6.866s14.43-39.591,59.886-3.677a7.867,7.867,0,0,1,.116,3.677,10.569,10.569,0,0,1-.279,1.234,8.724,8.724,0,0,1,.559,1.024c1.513,3.026,4.748,12.475-3.142,27.278Z" transform="translate(-876.432 -696.992)"/><path class="b" d="M1040.534,721.9a8.435,8.435,0,0,0,.186-4.911c-9.357-7.4-17.41-11.591-24.3-13.593l-5.47,23.135c5.772.652,10.427.884,13.523,1a6.481,6.481,0,0,1,4.073,11.335,48.685,48.685,0,0,1-23,10.5l-3.352,14.2a229.9,229.9,0,0,0,35.727-13.383C1047.609,732.028,1040.534,721.9,1040.534,721.9Z" transform="translate(-972.928 -701.909)"/><path class="i" d="M935.863,795.8a6.5,6.5,0,0,0,.582-9.147,6.406,6.406,0,0,0-4.655-2.188,184.852,184.852,0,0,1-43.664-6.866s-9.985,13.872-5.679,28.186c7.215,1.49,34.912,5.865,53.416-9.985Z" transform="translate(-880.22 -758.839)"/><path class="e" d="M919.5,739.021l12.382,2.933,1.629-6.843-9.357-2.211A32.946,32.946,0,0,0,919.5,739.021Z" transform="translate(-909.476 -724.542)"/><path class="e" d="M987.1,824.86c9.892-.815,20.947-3.771,29.885-11.4a6.5,6.5,0,0,0,.582-9.147,6.406,6.406,0,0,0-4.655-2.188,173.8,173.8,0,0,1-17.34-1.466c-7.541-.978,10.823,14.43-8.472,24.206Z" transform="translate(-961.342 -776.493)"/><circle class="g" cx="2.467" cy="2.467" r="2.467" transform="matrix(0.23, -0.973, 0.973, 0.23, 47.221, 34.414)"/><path class="e" d="M915.749,934.039a146.86,146.86,0,0,1-24.066,6.82l-.7-1.071a3.96,3.96,0,0,1-.884-.768,1.179,1.179,0,0,1,.7-.4,140.025,140.025,0,0,0,24.113-6.773,1.171,1.171,0,0,1,.838,2.188Z" transform="translate(-886.919 -877.13)"/><path class="e" d="M1043.532,750.376a1.174,1.174,0,0,1-1.257-.093c-20.086-14.873-34.959-6.191-35.1-6.1a1.176,1.176,0,1,1-1.234-2c.652-.4,16.176-9.45,37.286,5.912a10.569,10.569,0,0,1-.279,1.234,9.625,9.625,0,0,1,.582,1.047Z" transform="translate(-975.367 -729.357)"/><path class="k" d="M881.423,800.8c4.888-1.047,11.312-6.889,12.894-12.522s-6.261-10.683-6.261-10.683S880.283,788.423,881.423,800.8Z" transform="translate(-880.174 -758.839)"/></g><g transform="translate(435.128 195.458)"><g transform="translate(36.01 2.901)"><rect class="g" width="7.145" height="3.072" transform="translate(0 6.257) rotate(-61.131)"/><rect class="g" width="7.145" height="3.072" transform="translate(18.782 16.593) rotate(-61.131)"/></g><path class="e" d="M796.739,385.357c-.442.815-1.583.978-2.84.3l-17.34-9.566c-1.35-.745-1.7-1.769-1.257-2.56l1.373-2.49c.489-.884,1.583-.978,2.84-.3l17.247,9.519c1.35.745,1.839,1.722,1.35,2.607Z" transform="translate(-736.021 -370.28)"/><path class="b" d="M801.826,380.249l-17.34-9.566c-1.257-.7-2.351-.605-2.84.3l-.047.093a48.645,48.645,0,0,0,10.078,7.076,43.631,43.631,0,0,0,11.4,4.655h0C803.595,381.9,803.083,380.924,801.826,380.249Z" transform="translate(-740.991 -370.223)"/><path class="b" d="M662.909,434.588a3.187,3.187,0,0,1-4.306,1.234l-49.855-27.488a3.187,3.187,0,0,1-1.234-4.306l17.642-31.98a3.187,3.187,0,0,1,4.306-1.234L679.318,398.3a3.187,3.187,0,0,1,1.234,4.306l-17.642,31.98Z" transform="translate(-607.125 -370.378)"/><path class="g" d="M685.5,372.222a3.11,3.11,0,0,1,4.259-1.164l49.506,27.3a3.372,3.372,0,0,1,1.42,4.4L723,434.831a3.275,3.275,0,0,1-4.422,1.047l-22.065-12.173" transform="translate(-667.258 -370.552)"/><path class="e" d="M676.825,424.985c12.5,6.889,25.649,8.426,33.469,4.818l4.585-8.309a3.108,3.108,0,0,0-1.559-4.12l-49.506-27.3a3.1,3.1,0,0,0-4.329.884l-4.585,8.309C655.971,407.878,664.326,418.1,676.825,424.985Z" transform="translate(-643.78 -385.074)"/><path class="g" d="M686.7,406.19c12.5,6.889,25.649,8.425,33.469,4.818l4.585-8.309a3.372,3.372,0,0,0-1.42-4.4l-49.692-27.395a3.03,3.03,0,0,0-4.259,1.164l-4.585,8.309C665.871,389.013,674.18,399.3,686.7,406.19Z" transform="translate(-651.376 -370.399)"/><path class="b" d="M715.75,407.231c12.5,6.889,25.6,8.519,33.469,4.818l4.585-8.309a3.193,3.193,0,0,0-1.234-4.306L702.6,371.9" transform="translate(-680.378 -371.51)"/><path class="l" d="M735.581,516.5a1.777,1.777,0,0,1-2.234.861l-4.19-2.3a2.027,2.027,0,0,1-.628-2.444l4.888-8.844c.4-.722.628.116,1.443.559l4.376,2.421c.815.442,1.583.3,1.234.908Z" transform="translate(-700.139 -472.47)"/><path class="b" d="M740.355,508.057c-.4.722-1.024.605-1.839.163l-4.376-2.421c-.815-.442-1.234-.908-.838-1.629l4.888-8.844c.4-.722.582.209,1.4.652l4.376,2.421c.815.442,1.676.116,1.28.838Z" transform="translate(-703.819 -466.004)"/><path class="l" d="M754.3,495.125c.4-.722.582.209,1.4.652l4.376,2.421c.815.442,1.676.116,1.28.838l-4.888,8.844c-.4.722-1.024.605-1.839.163" transform="translate(-720.045 -465.851)"/><path class="e" d="M747.285,514.78c-.186.349-.279.3-.745.07l-2.49-1.373c-.442-.256-.535-.3-.349-.652l3.305-5.982c.186-.349.209.233.745.535l2.048,1.14c.442.256.954-.047.768.3Z" transform="translate(-711.844 -474.962)"/><path class="g" d="M756.128,506.777c.186-.349.4.326.838.582l1.885,1.024c.442.256,1.047,0,.861.349l-3.3,5.982c-.186.349-.372.256-.908-.047" transform="translate(-720.966 -474.919)"/></g></g></svg>