<svg xmlns="http://www.w3.org/2000/svg" width="281.544" height="210.558" viewBox="0 0 281.544 210.558"><defs><style>.a{fill:#cff1fa;}.b{fill:#08a1ba;}.c{fill:#71caee;}.d{fill:#fff;}.e{fill:#13516c;}.f{fill:#f9f9f9;}.g{fill:none;stroke:#13516c;stroke-miterlimit:10;stroke-width:7px;}.h{fill:#02aff3;}</style></defs><path class="a" d="M409.673,325.129s-31.82-10.219-26.013-36c6.039-26.78,34.375-21.832,24.62-56.439S359.04,123.062,440.8,147.217c97.712,28.87,186.738-.7,186.738-.7s59.923-21.833,27.174,35.536-18.581,72.7-18.581,72.7,42.271,44.594-1.394,70.375-186.97,16.491-222.97,0" transform="translate(-382.952 -142.442)"/><ellipse class="b" cx="138.776" cy="15.585" rx="138.776" ry="15.585" transform="translate(0.708 179.388)"/><ellipse class="c" cx="119.893" cy="14.377" rx="119.893" ry="14.377" transform="translate(19.149 171.306)"/><ellipse class="d" cx="14.958" cy="15.608" rx="14.958" ry="15.608" transform="translate(36.929 171.343) rotate(-76.078)"/><ellipse class="e" cx="14.958" cy="15.608" rx="14.958" ry="15.608" transform="translate(38.743 172.91) rotate(-76.078)"/><path class="f" d="M615.9,756.3s.79,10.916,14.307,10.916h67.611V720.158s0-5.458-7.8-5.458H654.13s-24.178,2.346-33.538,19.765C620.592,734.442,615.9,740.945,615.9,756.3Z" transform="translate(-561.795 -581.787)"/><path class="g" d="M924.48,373.992s70.584-14.934,63.175-69.934c-7.27-54.07-48.612-45.5-48.612-45.5s-31.471,7.548-24.968,43.41c5.435,30.055,61.619,98.548,61.619,98.548" transform="translate(-790.036 -231.208)"/><path class="h" d="M627.1,765.2s.79,10.916,14.307,10.916h67.611V729.058s0-5.458-7.8-5.458H665.33s-24.178,2.346-33.538,19.765C631.792,743.365,627.1,749.869,627.1,765.2Z" transform="translate(-570.394 -588.62)"/><path class="e" d="M735.71,809.205s-25.99-4.692-36.14,4.413-8.849,27.291-8.849,27.291H735.71Z" transform="translate(-619.197 -653.415)"/><circle class="d" cx="20.532" cy="20.532" r="20.532" transform="translate(101.974 150.588)"/><circle class="b" cx="20.532" cy="20.532" r="20.532" transform="translate(103.53 151.378)"/><path class="d" d="M1076.14,873.94h-72.953a2.8,2.8,0,0,1-2.787-2.787V850.087a2.8,2.8,0,0,1,2.787-2.787h72.953a2.8,2.8,0,0,1,2.787,2.787v21.066A2.8,2.8,0,0,1,1076.14,873.94Z" transform="translate(-856.991 -683.589)"/><path class="h" d="M1085.14,879.54h-72.953a2.8,2.8,0,0,1-2.787-2.787V855.687a2.8,2.8,0,0,1,2.787-2.787h72.953a2.8,2.8,0,0,1,2.787,2.787v21.066A2.8,2.8,0,0,1,1085.14,879.54Z" transform="translate(-863.901 -687.889)"/><ellipse class="e" cx="20.416" cy="8.199" rx="20.416" ry="8.199" transform="translate(164.614 162.015)"/><path class="f" d="M894.267,456.555l-10.777,4.9a2.788,2.788,0,0,1-3.693-1.394l-9.314-20.485a2.789,2.789,0,0,1,1.394-3.693l10.777-4.9a2.788,2.788,0,0,1,3.693,1.394l9.314,20.485A2.808,2.808,0,0,1,894.267,456.555Z" transform="translate(-757.06 -363.777)"/><path class="h" d="M902.167,458.855l-10.777,4.9a2.788,2.788,0,0,1-3.693-1.394l-9.314-20.485a2.788,2.788,0,0,1,1.393-3.693l10.777-4.9a2.788,2.788,0,0,1,3.693,1.394l9.314,20.485A2.836,2.836,0,0,1,902.167,458.855Z" transform="translate(-763.125 -365.543)"/><path class="e" d="M1290.9,909.317h-.186a.823.823,0,0,1-.813-.813V897.913a.823.823,0,0,1,.813-.813h.186a.823.823,0,0,1,.813.813V908.5A.808.808,0,0,1,1290.9,909.317Z" transform="translate(-1079.252 -721.823)"/><path class="e" d="M1308.8,909.317h-.186a.823.823,0,0,1-.813-.813V897.913a.823.823,0,0,1,.813-.813h.186a.823.823,0,0,1,.813.813V908.5A.808.808,0,0,1,1308.8,909.317Z" transform="translate(-1092.994 -721.823)"/><path class="e" d="M1035.6,909.317h-.186a.823.823,0,0,1-.813-.813V897.913a.823.823,0,0,1,.813-.813h.186a.823.823,0,0,1,.813.813V908.5A.794.794,0,0,1,1035.6,909.317Z" transform="translate(-883.248 -721.823)"/><path class="e" d="M1053.6,909.317h-.186a.823.823,0,0,1-.813-.813V897.913a.823.823,0,0,1,.813-.813h.186a.823.823,0,0,1,.813.813V908.5A.808.808,0,0,1,1053.6,909.317Z" transform="translate(-897.067 -721.823)"/><path class="e" d="M909.789,465.931l-10.8,4.924a.706.706,0,0,1-.929-.348l-.07-.163a.706.706,0,0,1,.348-.929l10.8-4.924a.706.706,0,0,1,.929.348l.07.163A.706.706,0,0,1,909.789,465.931Z" transform="translate(-778.319 -389.643)"/><path class="e" d="M916.49,479.331l-10.8,4.924a.705.705,0,0,1-.929-.348l-.07-.163a.706.706,0,0,1,.348-.929l10.8-4.924a.706.706,0,0,1,.929.348l.07.163A.691.691,0,0,1,916.49,479.331Z" transform="translate(-783.463 -399.931)"/><path class="d" d="M472.809,221.8S461.2,188.354,495.8,193.928c0,0,7.9,2.555,3.716,5.574s-22.529.465-19.51,19.045c0,0,.232,7.9-5.11,3.252" transform="translate(-450.5 -181.489)"/><path class="d" d="M1416.533,195.406s37.394-10.452,24.852,16.491c0,0-5.11,4.645-7.2,0s7.9-15.1-14.4-11.149C1419.785,200.748,1411.423,202.606,1416.533,195.406Z" transform="translate(-1175.203 -181.573)"/></svg>