<svg xmlns="http://www.w3.org/2000/svg" width="282.136" height="211" viewBox="0 0 282.136 211"><defs><style>.a{fill:#cff1fa;}.b{fill:#08a1ba;}.c{fill:#71caee;}.d{fill:#fff;}.e{fill:#fefefe;}.f{fill:#02aff3;}.g{fill:#13516c;}</style></defs><g transform="translate(-382.952 -142.442)"><path class="a" d="M409.729,325.513s-31.887-10.241-26.068-36.076c6.051-26.836,34.447-21.878,24.671-56.558s-49.343-109.857,32.585-85.651c97.917,28.931,187.13-.7,187.13-.7s60.049-21.878,27.232,35.611-18.62,72.85-18.62,72.85,42.36,44.688-1.4,70.523-187.363,16.525-223.439,0"/><ellipse class="b" cx="139.067" cy="15.617" rx="139.067" ry="15.617" transform="translate(383.661 322.208)"/><ellipse class="c" cx="120.145" cy="14.407" rx="120.145" ry="14.407" transform="translate(402.142 314.108)"/><path class="d" d="M474.813,218.86s-11.637-33.516,23.042-27.93c0,0,7.913,2.56,3.724,5.586S479,196.981,482.028,215.6c0,0,.233,7.913-5.12,3.258" transform="translate(-69.04 -36.72)"/><path class="d" d="M1418.536,192.41s37.473-10.474,24.9,16.525c0,0-5.12,4.655-7.215,0s7.914-15.129-14.43-11.172C1421.795,197.763,1413.416,199.625,1418.536,192.41Z" transform="translate(-793.282 -36.804)"/><g transform="translate(446.969 191.077)"><path class="e" d="M700.9,422.5l7.7,117.189h55.6l6.54-117.189Z" transform="translate(-690.915 -405.952)"/><path class="e" d="M740.486,369.368H665.332A7.361,7.361,0,0,1,658,362.037v-3.305a7.361,7.361,0,0,1,7.332-7.332h75.155a7.361,7.361,0,0,1,7.332,7.332v3.305A7.361,7.361,0,0,1,740.486,369.368Z" transform="translate(-658 -351.4)"/><path class="b" d="M719.3,422.5l7.681,117.189h55.6L789.148,422.5Z" transform="translate(-705.033 -405.952)"/><path class="f" d="M820.9,411.922s13.267,49.575,43.99,40.615L867.1,410.2Z" transform="translate(-782.985 -396.514)"/><path class="g" d="M758.886,369.368H683.732a7.361,7.361,0,0,1-7.332-7.332v-3.305a7.361,7.361,0,0,1,7.332-7.332h75.155a7.361,7.361,0,0,1,7.332,7.332v3.305A7.361,7.361,0,0,1,758.886,369.368Z" transform="translate(-672.117 -351.4)"/><path class="g" d="M898.1,624.263l2.863-1.42,3.142,5.423s7.425,1.722,8.263-4.841l-2.863-5.144L912.367,616h-9.4Z" transform="translate(-842.217 -554.415)"/><path class="g" d="M883.4,668.581V677.7h9.4s4.841-2.863,7.7-11.4a6.011,6.011,0,0,1-4.283,2.281Z" transform="translate(-830.938 -593.007)"/><path class="g" d="M822.144,571.9l-2.653-1.792,3.165-5.4s-2.165-7.308-8.286-4.818l-3.072,5-3.4-1.35,4.632,8.193Z" transform="translate(-773.011 -510.971)"/><path class="g" d="M863.4,566.74l7.937-4.492-4.632-8.193s-4.864-2.816-13.709-1.094a6.033,6.033,0,0,1,4.1,2.607C858.353,557.8,863.4,566.74,863.4,566.74Z" transform="translate(-807.614 -505.62)"/><path class="g" d="M821,659.6l-.163,3.189-6.261.093s-5.12,5.633.186,9.589l5.865.023.582,3.608,4.608-8.193Z" transform="translate(-776.429 -587.867)"/><path class="g" d="M793.968,620.069l-7.96-4.469-4.608,8.193s.116,5.633,6.168,12.289a5.986,5.986,0,0,1,.116-4.841Z" transform="translate(-752.679 -554.108)"/></g><g transform="translate(512.837 226.777)"><path class="d" d="M1060.274,547.6s-17.689-29.932-16.548-32.212,15.408,7.7,15.408,7.7,2.583,2.374,3-1.676c.419-4.027,5.563-15.152,7.541-15.431,2-.279,6.563,15.361,8.984,16.385s6.982-1.257,10.683-5.26a52.3,52.3,0,0,1,6.843-6.284s5.144-4.562,4,.861-10.264,35.936-10.264,35.936S1073.1,555.889,1060.274,547.6Z" transform="translate(-1019.776 -505.705)"/><path class="b" d="M1044.274,546.4s-17.689-29.931-16.548-32.212,15.408,7.7,15.408,7.7,2.583,2.374,3-1.676c.419-4.027,5.563-15.152,7.541-15.431,2-.279,6.563,15.361,8.984,16.386s6.983-1.257,10.683-5.26a52.3,52.3,0,0,1,6.843-6.284s5.144-4.562,4,.861-10.264,35.936-10.264,35.936S1057.122,554.666,1044.274,546.4Z" transform="translate(-1007.5 -504.784)"/><path class="g" d="M1042.944,698.473c0,20.342-22.833,23.6-50.972,23.6S941,718.816,941,698.473c0-16.921,15.78-44.222,37.31-52.927.768-.3,1.559-.605,2.351-.838A35.432,35.432,0,0,1,992,642.8a34.2,34.2,0,0,1,7.541.838,31.013,31.013,0,0,1,4.562,1.327,39.377,39.377,0,0,1,3.84,1.606C1028.281,656.206,1042.944,682.158,1042.944,698.473Z" transform="translate(-941 -610.677)"/><path class="f" d="M1024.836,698.885c-3.142,20.528-10.45,23.089-31.072,23.089C973.119,722,941,718.646,941,698.327c0-17.968,18.527-48.482,41.336-54.184a21.542,21.542,0,0,1,3.7-.861,34.5,34.5,0,0,1,7.7-.582,18.812,18.812,0,0,1,5.539.838,18.592,18.592,0,0,1,3.352,1.327,26.4,26.4,0,0,1,2.816,1.606C1020.274,659.83,1027.3,682.756,1024.836,698.885Z" transform="translate(-941 -610.6)"/><path class="d" d="M1036.195,700.3c11.777,12.056,19.365,28.7,19.365,40.405,0,20.342-22.833,23.6-50.972,23.6-19.248,0-36.03-1.536-44.688-9.007,7.937,9.124,25.812,10.893,46.573,10.893,28.139,0,50.972-3.258,50.972-23.6C1057.445,730.255,1049.066,712.426,1036.195,700.3Z" transform="translate(-955.501 -654.794)"/><path class="g" d="M1165,803.611l3-1.071,2.444,5.772s7.145,2.607,8.8-3.794l-2.188-5.446,3.119-1.909L1170.842,796Z" transform="translate(-1112.864 -728.22)"/><path class="g" d="M1143.541,850.74l-1.141,9.054,9.333,1.164s5.167-2.234,9.054-10.357a6.012,6.012,0,0,1-4.515,1.746C1153.735,852,1143.541,850.74,1143.541,850.74Z" transform="translate(-1095.524 -770.112)"/><path class="g" d="M1097.857,743.8l-2.4-2.095,3.817-4.958s-1.234-7.518-7.634-5.8l-3.654,4.585-3.189-1.769,3.584,8.7Z" transform="translate(-1051.331 -678.117)"/><path class="g" d="M1140.812,741.728l8.449-3.468-3.584-8.7s-4.469-3.4-13.476-2.793a5.936,5.936,0,0,1,3.724,3.1Z" transform="translate(-1087.698 -675.042)"/><path class="g" d="M1083.923,830.6l-.535,3.142-6.214-.7s-5.772,4.958-1,9.543l5.819.745.14,3.654,5.586-7.564Z" transform="translate(-1043.262 -754.767)"/><path class="g" d="M1062.053,786.423,1054.722,781l-5.586,7.564s-.582,5.586,4.608,12.964a6.01,6.01,0,0,1,.7-4.795C1055.979,794.662,1062.053,786.423,1062.053,786.423Z" transform="translate(-1023.952 -716.711)"/><path class="g" d="M1061.1,576.6s7.122,13.965,8.844,14.547C1071.644,591.705,1063.66,576.6,1061.1,576.6Z" transform="translate(-1033.147 -559.885)"/><path class="g" d="M1227.3,561.9s-.861,10.846-5.7,17.968C1221.6,579.868,1223.3,567.6,1227.3,561.9Z" transform="translate(-1156.291 -548.606)"/><path class="g" d="M1140.207,565.6s-1.722,7.983,1.141,14.267C1141.347,579.844,1141.929,570.72,1140.207,565.6Z" transform="translate(-1093.448 -551.445)"/></g></g></svg>