<svg xmlns="http://www.w3.org/2000/svg" width="735.647" height="480.252" viewBox="0 0 735.647 480.252"><defs><style>.a{fill:#cff1fa;}.b{fill:#fff;}.c{fill:#08a1ba;}.d{fill:#71caee;}.e,.g{fill:#13516c;}.f{fill:#02aff3;}.g{opacity:0.8;}.h{fill:#15526e;}.i{fill:#fefefe;}.j{fill:#cdf0fc;}</style></defs><g transform="translate(0 0)"><g transform="translate(25.36 49.774)"><path class="a" d="M275.191,508.045s-33.1-37.146-.042-67.875,27.47-44.7,25.608-57.269-32.592-75.427,27.47-89.4S354.767,224.6,354.767,224.6,316.588,105.869,485.6,142.652s284.947-2.794,284.947-2.794,86.136-37.248,84.739,49.354-10.709,187.171,47.957,217.9,27,129.9,27,129.9l-655.057-28.97" transform="translate(-260.468 -131.893)"/><path class="b" d="M521.152,241.237S502.994,171.4,564.918,170c0,0,8.846,1.862,4.19,7.915s-49.354,18.624-37.714,63.322C531.4,241.237,525.808,248.221,521.152,241.237Z" transform="translate(-398.451 -152.257)"/><path class="b" d="M1347.387,180.125s78.686-22.349,72.168,47.957c0,0-1.4,12.106-11.64,5.587,0,0-16.762-42.835-60.528-41.9C1347.387,191.765,1342.266,186.644,1347.387,180.125Z" transform="translate(-840.102 -155.864)"/></g><g transform="translate(0 403.214)"><ellipse class="c" cx="219.079" cy="25.212" rx="219.079" ry="25.212" transform="translate(0 11.989)"/><ellipse class="c" cx="219.079" cy="25.212" rx="219.079" ry="25.212" transform="translate(297.49 26.614)"/><ellipse class="d" cx="202.303" cy="23.28" rx="202.303" ry="23.28" transform="translate(23.746)"/><ellipse class="d" cx="202.303" cy="23.28" rx="202.303" ry="23.28" transform="translate(298.449 13.502)"/></g><g transform="translate(275.169 0)"><path class="e" d="M797,43.619s4.656-24.677,26.074-17.227l40.973,115s23.746,1.862,39.576,10.243L850.078,310.407l-14.434-20.486-35.385-74.5s-7.915-52.613,35.851-71.237Z" transform="translate(-797 -24.99)"/><path class="f" d="M1001.575,372.67l-4.656-31.661S984.348,289.328,926.148,287c0,0-36.317,2.794-40.042,46.094,0,0-3.725,13.968,5.122,51.682l13.865,65.543,71.339,15.472,25.142-57.734Z" transform="translate(-844.203 -165.008)"/><g transform="translate(55.406 225.355)"><path class="g" d="M916,544.386s84.274,42.835,105.691-35.386l37.713,49.819-84.274,25.608-32.592-2.794-23.745-22.814Z" transform="translate(-916 -509)"/></g><path class="h" d="M717.782,186.338l-7.45,5.587H691.709L681,184.01Z" transform="translate(-639.096 -98.335)"/><path class="f" d="M641,58.338l23.28,60.994,35.386-1.862L670.333,56.01Z" transform="translate(-617.72 -29.932)"/><rect class="h" width="34" height="10" rx="5" transform="translate(89.478 193)"/><rect class="h" width="36" height="10" rx="5" transform="translate(86.478 179)"/><rect class="h" width="36" height="10" rx="5" transform="translate(83.478 165)"/><rect class="h" width="18.144" height="4.535" rx="2.267" transform="translate(45.989 66.368) rotate(-8.15)"/><rect class="h" width="18.144" height="4.535" rx="2.267" transform="translate(43.824 59.679) rotate(-8.15)"/><rect class="h" width="18.144" height="4.535" rx="2.267" transform="translate(41.157 52.826) rotate(-8.15)"/></g><g transform="translate(215.923 125.137)"><path class="i" d="M680.111,299.8s-20.952,3.259-3.259,33.523,62.39,102.432,62.39,102.432-57.269,5.587-25.608,83.808S746.6,570.57,746.6,570.57l89.018-81.27s-41.9-47.957-75.427-51.682L705.719,310.044S694.079,294.679,680.111,299.8Z" transform="translate(-669.753 -296.427)"/><path class="f" d="M696.111,294.8s-20.952,3.259-3.259,33.523,62.39,102.432,62.39,102.432-57.269,5.587-25.608,83.808S762.6,565.57,762.6,565.57l89.018-81.27s-41.9-47.957-75.427-51.682L721.719,305.043S710.079,289.679,696.111,294.8Z" transform="translate(-678.303 -293.755)"/><g transform="translate(26.654 18.738)"><path class="h" d="M727,334s.466,18.158,13.037,24.211C740.037,358.211,742.365,338.19,727,334Z" transform="translate(-727 -334)"/><path class="h" d="M838.188,718.712s-40.214-64.029,15.193-81.722c0,0,30.73-4.656,42.37,7.45s-38.3,81.48-57.562,74.272" transform="translate(-778.885 -495.448)"/></g></g><g transform="translate(144.997 196.173)"><path class="i" d="M346,479.01l12.571,191.361h90.792L460.072,479.01Z" transform="translate(-329.9 -452.156)"/><rect class="i" width="146" height="30" rx="15" transform="translate(-0.35 -0.173)"/><g transform="translate(6.397 0)"><path class="c" d="M361,479.01l12.571,191.361h90.792L475.072,479.01Z" transform="translate(-344.313 -452.156)"/><rect class="e" width="148" height="30" rx="15" transform="translate(0.253 -0.173)"/></g><g transform="translate(46.695 76.237)"><path class="e" d="M713,675.5l4.656-2.328,5.122,8.846s12.106,2.794,13.5-7.915l-4.656-8.381L736.28,662H720.915Z" transform="translate(-668.633 -637.818)"/><path class="e" d="M701,706.725v14.9h15.365s7.915-4.656,12.571-18.624c0,0-2.794,3.725-6.984,3.725Z" transform="translate(-662.22 -659.728)"/><path class="e" d="M662.7,636.256l-4.316-2.91,5.182-8.809s-3.515-11.915-13.53-7.869l-5.01,8.176-5.531-2.221L647.047,636Z" transform="translate(-629.349 -613.144)"/><path class="e" d="M693.156,633.462l12.976-7.328-7.557-13.377s-7.943-4.586-22.4-1.793c0,0,4.614.6,6.677,4.251Z" transform="translate(-648.956 -610.062)"/><path class="e" d="M657.133,697.57l-.251,5.2-10.22.135s-8.381,9.186.289,15.649l9.587.046.968,5.881,7.524-13.4Z" transform="translate(-631.236 -656.827)"/><path class="e" d="M638.224,668.936l-12.99-7.3-7.524,13.4s.182,9.182,10.08,20.081c0,0-1.862-4.26.172-7.915Z" transform="translate(-617.71 -637.625)"/></g></g><g transform="translate(418.999 203.636)"><path class="c" d="M935,498.01l12.571,191.361h90.792l10.709-191.361Z" transform="translate(-918.664 -469.772)"/><rect class="e" width="147" height="29" rx="14.5" transform="translate(-0.352 0.364)"/><path class="e" d="M1287,694.5l4.656-2.328,5.122,8.846s12.105,2.794,13.5-7.915l-4.656-8.381L1310.28,681h-15.365Z" transform="translate(-1202.686 -579.198)"/><path class="e" d="M1275,725.725v14.9h15.365s7.915-4.656,12.571-18.624c0,0-2.794,3.725-6.984,3.725Z" transform="translate(-1196.273 -601.108)"/><path class="e" d="M1236.7,655.256l-4.316-2.91,5.182-8.809s-3.515-11.915-13.531-7.869l-5.01,8.176-5.531-2.221L1221.047,655Z" transform="translate(-1163.402 -554.524)"/><path class="e" d="M1267.156,652.454l12.976-7.328-7.557-13.377s-7.943-4.6-22.4-1.792c0,0,4.614.6,6.676,4.251Z" transform="translate(-1183.01 -551.433)"/><path class="e" d="M1231.106,716.57l-.251,5.2-10.243.135s-8.381,9.186.289,15.649l9.587.047.968,5.881,7.524-13.4Z" transform="translate(-1165.262 -598.206)"/><path class="e" d="M1212.224,687.936l-12.99-7.3-7.524,13.4s.182,9.182,10.08,20.081c0,0-1.862-4.26.172-7.915Z" transform="translate(-1151.763 -579.005)"/></g><g transform="translate(306.365 144.55)"><path class="h" d="M887,548.655s15.83-54.941,69.374-62.856h27.47s22.814-31.2,48.422-99.638c0,0,11.64-38.179,27.936-34.454,0,0,14.433,3.725,4.19,20.021s-54.475,96.379-57.734,113.141l29.333-.466s21.883,2.328,23.28,23.28c0,0,2.328,18.624-11.64,40.973Z" transform="translate(-876.291 -344.001)"/><path class="i" d="M864,532.655s15.83-54.941,69.374-62.856h27.47s22.814-31.2,48.422-99.638c0,0,11.64-38.179,27.936-34.454,0,0,14.433,3.725,4.19,20.021s-54.475,96.379-57.734,113.141l29.333-.466s21.883,2.328,23.28,23.28c0,0,2.328,18.624-11.64,40.973Z" transform="translate(-864 -335.451)"/><path class="f" d="M872,541.655s15.83-54.941,69.374-62.856h27.47s22.814-31.2,48.422-99.638c0,0,11.64-38.179,27.936-34.454,0,0,14.434,3.725,4.19,20.021s-54.475,96.379-57.734,113.141l29.333-.466s21.883,2.328,23.28,23.28c0,0,2.328,18.624-11.64,40.973Z" transform="translate(-868.275 -340.26)"/></g><g transform="translate(250.493 344.097)"><path class="i" d="M744,842.962S771.661,842.5,806.018,768H964.229s-26.073,62.856-50.75,87.533C913.478,855.533,789.629,854.6,744,842.962Z" transform="translate(-744 -766.152)"/><path class="a" d="M658,751.132l4.325-12.092H823.479l-6.709,13.954Z" transform="translate(-602.128 -739.04)"/><path class="a" d="M967.718,785S946.3,848.787,903,865.083C903,865.083,956.078,857.168,967.718,785Z" transform="translate(-828.97 -775.236)"/><path class="a" d="M1028.285,773s15.83,52.613-50.285,85.67C978,858.67,1054.358,842.374,1028.285,773Z" transform="translate(-869.05 -768.824)"/><path class="a" d="M1106.232,785s-4.656,44.232-44.232,80.083C1062,865.083,1117.872,827.835,1106.232,785Z" transform="translate(-913.939 -775.236)"/><path class="d" d="M850.306,794S843.322,838.7,780,837.3c0,0,38.645-2.328,70.305-43.3" transform="translate(-763.239 -780.046)"/><path class="j" d="M772,833.3s38.645-2.328,70.306-43.3C842.306,790,835.322,834.7,772,833.3Z" transform="translate(-758.963 -777.908)"/><path class="d" d="M831.485,778.05s-5.326,34.073-53.6,33.034c0,0,29.459-1.774,53.6-33.011" transform="translate(-762.111 -771.522)"/><path class="j" d="M771.79,808.011s29.459-1.774,53.6-33.011C825.385,775,820.063,809.077,771.79,808.011Z" transform="translate(-758.851 -769.892)"/><path class="d" d="M890.36,785s-3.627,71.954-104.15,80.274c0,0,60.821-10.113,104.15-80.274" transform="translate(-766.557 -775.236)"/><path class="j" d="M772.88,860.219S833.7,850.1,877.025,779.94C877.025,779.94,873.4,851.9,772.88,860.219Z" transform="translate(-759.433 -772.532)"/></g></g></svg>