<svg xmlns="http://www.w3.org/2000/svg" width="24" height="24" viewBox="0 0 24 24"><defs><style>.a{fill:#fff;}.b{fill:#4caf50;}.c{fill:#fafafa;}</style></defs><path class="a" d="M20.52,3.449A12.142,12.142,0,0,0,12.045,0,11.913,11.913,0,0,0,1.7,17.838L0,24l6.335-1.652A12.562,12.562,0,0,0,12.051,23.8,11.909,11.909,0,0,0,20.505,3.488Z"/><path class="b" d="M12.067,21.751h-.022A10.076,10.076,0,0,1,6.63,20.156l-3.75.975,1.005-3.645-.239-.375a9.912,9.912,0,1,1,8.421,4.64Z"/><path class="c" d="M17.507,14.307l-.009.075c-.3-.15-1.767-.867-2.04-.966-.613-.227-.44-.036-1.617,1.312-.175.195-.349.21-.646.075a8.116,8.116,0,0,1-2.4-1.485,9.073,9.073,0,0,1-1.66-2.07c-.293-.506.32-.578.878-1.634a.55.55,0,0,0-.025-.524c-.075-.15-.672-1.62-.922-2.206s-.487-.51-.672-.51a1.488,1.488,0,0,0-1.368.344c-1.614,1.774-1.207,3.6.174,5.55,2.714,3.552,4.16,4.206,6.8,5.114a4.137,4.137,0,0,0,1.88.121A3.077,3.077,0,0,0,17.9,16.077a2.475,2.475,0,0,0,.18-1.425c-.074-.135-.27-.21-.57-.345Z"/></svg>